<svg xmlns="http://www.w3.org/2000/svg" viewBox="0 0 276.427 382.575"><g id="Layer_2" data-name="Layer 2"><g id="Layer_2-2" data-name="Layer 2"><path d="M13.822,159.762l3.284-2.389A213.17,213.17,0,0,0,103.42,8.512l.09-.822a8.627,8.627,0,1,1,17.151,1.879l-.09.822a229.671,229.671,0,0,1-10.646,48.186l-.283.84,115.4,66.626.586-.665a229.643,229.643,0,0,1,36.408-33.312l.657-.484a8.565,8.565,0,0,1,5.1-1.675,8.627,8.627,0,0,1,5.116,15.579l-.665.489a213.164,213.164,0,0,0-85.769,149.186l-.427,4.038L0,382.575ZM36.969,334.9l1.536,1.444,131.281-87.057.063-.493a230.724,230.724,0,0,1,43.472-108.2l.723-.975L103.387,75.729l-.483,1.113a230.734,230.734,0,0,1-71.965,91.747l-.4.3-9.627,155.2,2.018.609L88.181,211.685l-.588-.587a38.227,38.227,0,1,1,16.252,9.617l-.817-.239Zm77.594-171.49a20.8,20.8,0,1,0,10.368,2.783A20.89,20.89,0,0,0,114.563,163.405Z"/></g></g></svg>