<svg xmlns="http://www.w3.org/2000/svg" viewBox="0 0 384.434 405.472"><g id="Layer_2" data-name="Layer 2"><g id="Layer_2-2" data-name="Layer 2"><path d="M305.488,290.311a11.889,11.889,0,0,1-1.182-23.717,62.8,62.8,0,0,0,44.148-99.672,11.923,11.923,0,0,1-.852-12.773,54.851,54.851,0,0,0-48.141-81.121,54.157,54.157,0,0,0-24.443,5.737,11.88,11.88,0,0,1-15.949-5.315,89.834,89.834,0,0,0-157.321-6.174,11.951,11.951,0,0,1-10.181,5.752h-.239A67.553,67.553,0,0,0,76.656,206.522a11.816,11.816,0,0,1,9.288,10.719,67.237,67.237,0,0,0,12.222,33.881,11.888,11.888,0,1,1-19.388,13.763,90.46,90.46,0,0,1-15.089-35.124l-.44-2.242-2.155-.759A91.347,91.347,0,0,1,83.085,49.622l1.844-.166L86,47.943C107.486,17.475,141.28,0,178.712,0A113.12,113.12,0,0,1,273.3,50.646l1.621,2.446,2.819-.812a78.654,78.654,0,0,1,94.718,104.812l-.726,1.815.987,1.689a86.606,86.606,0,0,1-66.006,129.653C306.3,290.29,305.89,290.311,305.488,290.311Z"/><path d="M190.716,405.472c-4.736,0-8.521-1.457-11.251-4.33a14.654,14.654,0,0,1-4.051-10.443,15.4,15.4,0,0,1,4.007-10.7c2.731-3.006,6.532-4.531,11.3-4.531a14.867,14.867,0,0,1,11.251,4.484,15.066,15.066,0,0,1,4.2,10.746,14.366,14.366,0,0,1-4.249,10.492A15.167,15.167,0,0,1,190.716,405.472Zm-.5-61.958a11.85,11.85,0,0,1-8.77-3.892,12.173,12.173,0,0,1-3.066-9.368,68.488,68.488,0,0,1,4.461-19.369c3.188-7.641,9.736-16.271,20.018-26.383,9.722-9.566,16.04-16.388,18.78-20.273a46.071,46.071,0,0,0,6.195-12.524,51.607,51.607,0,0,0,2.182-15.646c0-11.647-3.085-20.866-9.171-27.4-6.114-6.569-14.5-9.762-25.633-9.762-11.162,0-20.241,3.186-26.985,9.47a32.173,32.173,0,0,0-9.75,18.691A11.688,11.688,0,0,1,147.071,237h-.788a11.551,11.551,0,0,1-11.4-13.381A52.325,52.325,0,0,1,151.649,192.4c11.419-10.32,26.078-15.552,43.568-15.552,17.952,0,32.373,5.367,42.861,15.953s15.8,25.025,15.8,42.954a68.2,68.2,0,0,1-7.688,31.731c-5.039,9.708-14.639,21.105-28.538,33.873l-.1.088c-8.873,7.454-14.083,17.954-15.484,31.209A11.988,11.988,0,0,1,190.221,343.514Z"/></g></g></svg>