<svg xmlns="http://www.w3.org/2000/svg" viewBox="0 0 418.5 418.991"><g id="Layer_2" data-name="Layer 2"><g id="Layer_2-2" data-name="Layer 2"><path d="M415.572,201.919l-199-199a10.649,10.649,0,0,0-14.643,0l-199,199a10,10,0,0,0,14.143,14.143L209.25,23.883,401.429,216.062a10,10,0,0,0,14.143-14.143Z"/><path d="M358.5,199.991a10,10,0,0,0-10,10v159a30.034,30.034,0,0,1-30,30H100a30.034,30.034,0,0,1-30-30v-159a10,10,0,1,0-20,0v159a50.057,50.057,0,0,0,50,50H318.5a50.056,50.056,0,0,0,50-50v-159A10,10,0,0,0,358.5,199.991Z"/></g></g></svg>