<svg xmlns="http://www.w3.org/2000/svg" viewBox="0 0 395.981 389.019"><g id="Layer_2" data-name="Layer 2"><g id="Layer_2-2" data-name="Layer 2"><path d="M380.135,176.608c-.57-.568-1.154-1.117-1.743-1.657V30a30.034,30.034,0,0,0-30-30H124.545a30.034,30.034,0,0,0-30,30V59.366H68.478a30.034,30.034,0,0,0-30,30V128.1A54.041,54.041,0,0,0,0,179.82V335.044a54.036,54.036,0,0,0,53.975,53.975H342.007a54.035,54.035,0,0,0,53.974-53.975V214.812A53.617,53.617,0,0,0,380.135,176.608ZM114.545,30a10.011,10.011,0,0,1,10-10H348.392a10.012,10.012,0,0,1,10,10V163.37a54.077,54.077,0,0,0-16.382-2.532H341.9l-23.97.048V89.366a30.034,30.034,0,0,0-30-30H114.545ZM68.478,79.366H287.927a10.013,10.013,0,0,1,10,10v71.561l-94.333.19h-.026a11.925,11.925,0,0,1-8.348-3.386l-23.195-22.516a31.826,31.826,0,0,0-22.17-9.036l-91.377-.317v-36.5A10.012,10.012,0,0,1,68.478,79.366Zm307.5,255.678a34.014,34.014,0,0,1-33.974,33.975H53.975A34.014,34.014,0,0,1,20,335.044V179.82a33.973,33.973,0,0,1,33.97-33.973h.122l95.694.332a11.931,11.931,0,0,1,8.308,3.385l23.195,22.517a31.812,31.812,0,0,0,22.278,9.036h.068l138.3-.279h.07a33.973,33.973,0,0,1,33.973,33.974Z"/></g></g></svg>