<svg xmlns="http://www.w3.org/2000/svg" viewBox="0 0 445.955 418.447"><g id="Layer_2" data-name="Layer 2"><g id="Layer_2-2" data-name="Layer 2"><path d="M329.4,211.8l19.07-49.652a3.793,3.793,0,0,1,4.885-2.165l92.6,35.6L444.7,179.76A100.966,100.966,0,0,0,344.081,86.9q-3.875,0-7.7.289c-.791-.82-1.487-1.52-2.152-2.173l10.137-22.4a15.547,15.547,0,0,0-6.523-19.846L283.979,12.6a15.547,15.547,0,0,0-20.332,4.8l-14.1,20.775-39.585-4.695L201.119,9.993A15.542,15.542,0,0,0,182.473.571L123.049,17.327A15.546,15.546,0,0,0,112.068,35.1l4.721,24.646-31.3,24.685L62.62,74.072a15.547,15.547,0,0,0-19.848,6.519L12.588,134.459a15.543,15.543,0,0,0,4.806,20.331l20.784,14.1-4.7,39.583L9.994,217.318A15.543,15.543,0,0,0,.57,235.963L17.317,295.4a15.542,15.542,0,0,0,17.776,10.978l24.234-4.647c.433.7.986,1.583,1.621,2.581q-11.84,5.675-23.864,10.963a44.221,44.221,0,0,0-24.228,26.766,45.013,45.013,0,0,0,33.667,57.87,44.214,44.214,0,0,0,35.246-7.834q6.06-4.512,12.211-8.9l40.48,22.67a15.544,15.544,0,0,0,20.331-4.807l14.1-20.783,39.584,4.7,8.845,23.488a15.565,15.565,0,0,0,14.52,10,15.2,15.2,0,0,0,4.127-.571l59.426-16.756a15.543,15.543,0,0,0,10.978-17.773L301.648,358.7l31.306-24.687,22.863,10.359a15.544,15.544,0,0,0,19.85-6.519l30.183-53.877a15.544,15.544,0,0,0-.552-15.949c2.1-1.608,4.161-3.285,6.149-5.072L423.6,252.039,331.573,216.7A3.786,3.786,0,0,1,329.4,211.8ZM75.424,289.721a17.7,17.7,0,0,0-17.94-8l-22.05,4.23-14.48-51.388,21.008-7.911a18.227,18.227,0,0,0,11.31-15.235l4.839-40.785a18.271,18.271,0,0,0-7.457-17.444l-18.574-12.6,26.1-46.571,20.441,9.259a18.273,18.273,0,0,0,18.774-2.754l32.248-25.435a18.24,18.24,0,0,0,7.081-17.6L132.5,35.443l51.379-14.488,7.912,21.009a18.235,18.235,0,0,0,15.234,11.309l40.783,4.837a18.282,18.282,0,0,0,17.446-7.454l12.6-18.568,46.573,26.088-9.251,20.441a17.461,17.461,0,0,0-.517,12.616,100.054,100.054,0,0,0-35.464,19.3,120.494,120.494,0,0,0-168.28,167.6q-15.77,8.988-31.939,17.231C76.959,292.263,75.45,289.764,75.424,289.721Zm-5.6,86.314a23.886,23.886,0,0,1-19.289,4.283,25.013,25.013,0,0,1-18.663-32.08,23.878,23.878,0,0,1,13.255-14.651A817.335,817.335,0,0,0,220.52,228.56,103.449,103.449,0,0,0,247.779,275.5,816.91,816.91,0,0,0,69.824,376.035ZM360.262,324.43l-20.432-9.258a18.273,18.273,0,0,0-18.774,2.754L288.8,343.362a18.234,18.234,0,0,0-7.083,17.6l4.222,22.045-51.378,14.487-7.913-21.008a18.232,18.232,0,0,0-15.23-11.31l-40.784-4.847a18.259,18.259,0,0,0-17.448,7.456l-12.6,18.575L112.264,370.5a798.489,798.489,0,0,1,158.507-82.627l17.716-6.841-15.666-10.737a82.595,82.595,0,0,1-35.389-60.936l-1.59-18.925-14.7,12.02a800.984,800.984,0,0,1-92.928,65.516A100.515,100.515,0,0,1,258.584,121.1c2.209,1.237,4.359,2.573,6.464,3.968a100.9,100.9,0,0,0,120.1,154.934Zm-42.927-60.217A80.93,80.93,0,1,1,401.3,130.6a81.045,81.045,0,0,1,20.382,34.222l-61.168-23.515A23.822,23.822,0,0,0,329.8,154.975l-19.066,49.639a23.809,23.809,0,0,0,13.653,30.744l59.584,22.885A80.886,80.886,0,0,1,317.335,264.213Z"/></g></g></svg>