<svg xmlns="http://www.w3.org/2000/svg" viewBox="0 0 158.414 130.294"><defs><style>.cls-1{fill:#1c3041;}.cls-2{fill:#5ae2d8;}.cls-3{fill:#646499;}.cls-4{fill:#a9a9ff;}</style></defs><g id="Layer_2" data-name="Layer 2"><g id="Layer_1-2" data-name="Layer 1"><path class="cls-1" d="M125.81,130.294a20.348,20.348,0,0,1-2.905-.186l.982-6.343c.072.01,7.268,1.02,11.594-3.31,3.243-3.243,4.3-8.835,3.143-16.62-3.145-21.153,4.552-32.587,9.124-37.34-4.572-4.753-12.269-16.186-9.124-37.339,1.157-7.785.1-13.377-3.143-16.621-4.326-4.327-11.522-3.318-11.594-3.309l-.982-6.343c.423-.065,10.4-1.545,17.068,5.066,4.795,4.758,6.477,12.21,5,22.151-3.685,24.783,9.249,33.63,9.381,33.717l4.06,2.678-4.06,2.679c-.514.351-13.027,9.2-9.381,33.717,1.477,9.94-.205,17.393-5,22.15C135.435,129.542,129.359,130.294,125.81,130.294Z"/><path class="cls-1" d="M32.513,127.6c-3.548,0-9.624-.751-14.161-5.251-4.8-4.757-6.478-12.21-5-22.152C17,75.676,4.485,66.826,3.951,66.462L0,63.766l3.971-2.647c.514-.351,13.026-9.2,9.381-33.716-1.478-9.942.2-17.395,5-22.152C25.016-1.36,35,.121,35.42.186l-1,6.341c-.058-.01-7.253-1.02-11.582,3.31-3.242,3.244-4.3,8.836-3.142,16.621C22.845,47.61,15.148,59.044,10.577,63.8c4.571,4.753,12.268,16.188,9.124,37.34-1.158,7.785-.1,13.377,3.142,16.621,4.328,4.33,11.525,3.321,11.6,3.308l.982,6.343A20.206,20.206,0,0,1,32.513,127.6Z"/><path class="cls-2" d="M69.45,45.531A17.859,17.859,0,1,1,68.572,27c.043.064.086.15.129.214l-.514.3-5.071,2.931a11.353,11.353,0,0,0-9.37-4.9,11.457,11.457,0,1,0,10.1,16.859c.021-.022.021-.065.043-.086l4.3,2.482Z"/><polygon class="cls-3" points="86.796 57.155 82.258 52.616 97.868 37.006 82.258 21.395 86.796 16.857 106.945 37.006 86.796 57.155"/><polygon class="cls-4" points="118.016 57.155 122.554 52.616 106.944 37.006 122.554 21.395 118.016 16.857 97.867 37.006 118.016 57.155"/><polygon class="cls-3" points="101.427 101.845 96.889 97.307 81.278 112.917 65.668 97.307 61.13 101.845 81.278 121.994 101.427 101.845"/><path class="cls-1" d="M81.265,90.607A58.394,58.394,0,0,1,48.416,80.565l3.6-5.315a52.377,52.377,0,0,0,58.532,0l3.6,5.315A58.437,58.437,0,0,1,81.265,90.607Z"/></g></g></svg>