<svg xmlns="http://www.w3.org/2000/svg" viewBox="0 0 469.63 96.551"><defs><style>.cls-1{fill:#1c3041;}.cls-2{fill:#5ae2d8;}.cls-3{fill:#646499;}.cls-4{fill:#a9a9ff;}</style></defs><g id="Layer_2" data-name="Layer 2"><g id="Layer_1-2" data-name="Layer 1"><path class="cls-1" d="M93.229,96.551a15.133,15.133,0,0,1-2.153-.137l.728-4.7c.053.008,5.385.757,8.592-2.452,2.4-2.4,3.186-6.548,2.328-12.316-2.33-15.675,3.374-24.148,6.761-27.67-3.387-3.522-9.091-11.995-6.761-27.67.858-5.768.075-9.912-2.328-12.316C97.189,6.082,91.857,6.83,91.8,6.837l-.728-4.7c.314-.048,7.709-1.145,12.648,3.755,3.554,3.525,4.8,9.048,3.7,16.414-2.731,18.365,6.854,24.921,6.952,24.985l3.009,1.985-3.009,1.985c-.381.26-9.653,6.817-6.952,24.985,1.095,7.366-.151,12.889-3.7,16.414C100.362,96,95.859,96.551,93.229,96.551Z"/><path class="cls-1" d="M24.093,94.552c-2.629,0-7.131-.557-10.493-3.892-3.554-3.525-4.8-9.047-3.706-16.415,2.7-18.167-6.571-24.725-6.966-25L0,47.252l2.942-1.961c.381-.26,9.654-6.817,6.952-24.985C8.8,12.939,10.046,7.417,13.6,3.891,18.538-1.008,25.934.09,26.247.138l-.737,4.7c-.043-.006-5.375-.755-8.583,2.454-2.4,2.4-3.186,6.547-2.328,12.316,2.33,15.675-3.374,24.147-6.761,27.669,3.387,3.523,9.091,12,6.761,27.67-.858,5.77-.074,9.914,2.328,12.317,3.208,3.209,8.54,2.461,8.592,2.452l.728,4.7A14.866,14.866,0,0,1,24.093,94.552Z"/><path class="cls-2" d="M51.464,33.74a13.233,13.233,0,1,1-.65-13.729c.032.047.063.111.095.158l-.38.222-3.758,2.172a8.41,8.41,0,0,0-6.944-3.63A8.49,8.49,0,1,0,47.31,31.425c.016-.015.016-.047.032-.063L50.529,33.2Z"/><polygon class="cls-3" points="64.319 42.353 60.956 38.99 72.523 27.422 60.956 15.855 64.319 12.492 79.249 27.422 64.319 42.353"/><polygon class="cls-4" points="87.453 42.353 90.816 38.99 79.249 27.422 90.816 15.855 87.453 12.492 72.522 27.422 87.453 42.353"/><polygon class="cls-3" points="75.161 75.471 71.797 72.107 60.23 83.675 48.662 72.107 45.299 75.471 60.23 90.401 75.161 75.471"/><path class="cls-1" d="M60.22,67.143A43.268,43.268,0,0,1,35.878,59.7l2.664-3.938a38.815,38.815,0,0,0,43.375,0L84.581,59.7A43.3,43.3,0,0,1,60.22,67.143Z"/><path class="cls-1" d="M135.763,39.288a16.687,16.687,0,0,1,6.369-6.245,18.734,18.734,0,0,1,18.567.444,15.322,15.322,0,0,1,6.2,7.63H160.13a9.056,9.056,0,0,0-3.7-4.051,10.988,10.988,0,0,0-5.482-1.333,11.981,11.981,0,0,0-6.072,1.533,10.628,10.628,0,0,0-4.173,4.4,14.112,14.112,0,0,0-1.507,6.665A14.108,14.108,0,0,0,140.7,54.99a10.8,10.8,0,0,0,4.173,4.42,11.835,11.835,0,0,0,6.072,1.556,10.988,10.988,0,0,0,5.482-1.333,9.048,9.048,0,0,0,3.7-4.05H166.9a15.185,15.185,0,0,1-6.2,7.605,18.034,18.034,0,0,1-9.753,2.666,17.719,17.719,0,0,1-8.838-2.246,16.722,16.722,0,0,1-6.345-6.248,17.523,17.523,0,0,1-2.345-9.034A17.543,17.543,0,0,1,135.763,39.288Z"/><path class="cls-1" d="M187.708,63.657a16.608,16.608,0,0,1-6.369-6.269,17.66,17.66,0,0,1-2.346-9.062,17.534,17.534,0,0,1,2.346-9.038,16.687,16.687,0,0,1,6.369-6.245,18.516,18.516,0,0,1,17.678,0,16.511,16.511,0,0,1,6.344,6.245,17.665,17.665,0,0,1,2.322,9.038,17.792,17.792,0,0,1-2.322,9.062,16.435,16.435,0,0,1-6.344,6.269,18.494,18.494,0,0,1-17.678,0Zm14.888-4.2a10.784,10.784,0,0,0,4.173-4.443,14.283,14.283,0,0,0,1.5-6.692,14.111,14.111,0,0,0-1.5-6.665,10.634,10.634,0,0,0-4.173-4.4,12.8,12.8,0,0,0-12.147,0,10.632,10.632,0,0,0-4.172,4.4,14.112,14.112,0,0,0-1.507,6.665,14.283,14.283,0,0,0,1.507,6.692,10.782,10.782,0,0,0,4.172,4.443,12.646,12.646,0,0,0,12.147,0Z"/><path class="cls-1" d="M247.8,33.339a15.022,15.022,0,0,1,6.369,6.024,18.119,18.119,0,0,1,2.247,9.159,17.709,17.709,0,0,1-2.247,9.086,14.818,14.818,0,0,1-6.369,5.9,21.3,21.3,0,0,1-9.6,2.05h-11.21V31.242H238.2A20.918,20.918,0,0,1,247.8,33.339Zm-.37,24.369q3.209-3.26,3.208-9.186,0-5.973-3.208-9.331T238.2,35.833h-5.58V60.966h5.58Q244.223,60.966,247.433,57.708Z"/><path class="cls-1" d="M275.034,35.785V45.856h11.851v4.591H275.034V60.966h13.332v4.592H269.4V31.19h18.961v4.595Z"/><path class="cls-1" d="M303.474,63.584H322.04v1.974H300.907V63.681l18.219-30.762H301.4V30.894H321.7v1.925Z"/><path class="cls-1" d="M337.643,32.771v14.47h13.829v1.873H337.643V63.681h15.31v1.877H335.421V30.894h17.532v1.877Z"/><path class="cls-1" d="M385.788,65.558,376.9,50.8H369.3V65.558h-2.221V30.894h9.53q5.776,0,8.666,2.717a9.428,9.428,0,0,1,2.887,7.209,9.707,9.707,0,0,1-2.246,6.593,10.1,10.1,0,0,1-6.544,3.182l9.086,14.963ZM369.3,48.918H376.7q4.593,0,6.864-2.222a7.841,7.841,0,0,0,2.27-5.876q0-7.95-9.231-7.949H369.3Z"/><path class="cls-1" d="M409,63.708a15.71,15.71,0,0,1-6.024-6.3,19,19,0,0,1-2.174-9.135,18.969,18.969,0,0,1,2.174-9.162A15.746,15.746,0,0,1,409,32.847a17.721,17.721,0,0,1,17.28,0,15.746,15.746,0,0,1,6.024,6.268,18.958,18.958,0,0,1,2.174,9.162,18.987,18.987,0,0,1-2.174,9.135,15.71,15.71,0,0,1-6.024,6.3,17.741,17.741,0,0,1-17.28,0Zm16.047-1.657a13.587,13.587,0,0,0,5.208-5.48,17.322,17.322,0,0,0,1.9-8.294,17.437,17.437,0,0,0-1.9-8.345,13.587,13.587,0,0,0-5.208-5.48,15.185,15.185,0,0,0-14.814,0,13.769,13.769,0,0,0-5.235,5.48,17.282,17.282,0,0,0-1.926,8.345,17.168,17.168,0,0,0,1.926,8.294,13.769,13.769,0,0,0,5.235,5.48,15.206,15.206,0,0,0,14.814,0Z"/><path class="cls-1" d="M459.163,48.226l10.419,17.332h-2.518L457.73,50,448.8,65.558h-2.47L456.6,48.078,446.278,30.894H448.8l9.23,15.406,9.087-15.406h2.517Z"/></g></g></svg>