<svg version="1.2" xmlns="http://www.w3.org/2000/svg" viewBox="0 0 150 31" width="150" height="31">
	<title>Logo-svg</title>
	<style>
		.s0 { fill: #1c3041 } 
		.s1 { fill: #5ae2d8 } 
		.s2 { fill: #646499 } 
		.s3 { fill: #a9a9ff } 
	</style>
	<g id="Layer_2">
		<g id="Layer_1-2">
			<path id="Layer" class="s0" d="m29.8 30.9q-0.1 0-0.2 0-0.1 0-0.2-0.1-0.1 0-0.2 0 0 0-0.1 0l0.2-1.5c0 0 1.7 0.3 2.7-0.8q1.2-1.1 0.8-3.9c-0.8-5 1.1-7.7 2.1-8.9-1-1.1-2.9-3.8-2.1-8.8q0.4-2.8-0.8-3.9c-1-1.1-2.7-0.8-2.7-0.8l-0.2-1.5c0.1 0 2.4-0.4 4 1.2q1.7 1.7 1.2 5.2c-0.9 5.9 2.2 8 2.2 8l1 0.6-1 0.7c-0.1 0.1-3.1 2.2-2.2 8q0.5 3.5-1.2 5.2c-1.1 1.1-2.5 1.3-3.3 1.3z"/>
			<path id="Layer" class="s0" d="m7.7 30.2c-0.8 0-2.3-0.2-3.4-1.2q-1.7-1.7-1.1-5.3c0.8-5.8-2.1-7.9-2.3-8l-0.9-0.6 0.9-0.6c0.2-0.1 3.1-2.2 2.3-8q-0.6-3.6 1.1-5.3c1.6-1.5 4-1.2 4.1-1.2l-0.3 1.5c0 0-1.7-0.2-2.7 0.8q-1.1 1.2-0.7 4c0.7 5-1.1 7.7-2.2 8.8 1.1 1.1 2.9 3.8 2.2 8.9q-0.4 2.7 0.7 3.9c1 1 2.7 0.8 2.7 0.8l0.3 1.5q-0.1 0-0.2 0-0.1 0-0.2 0-0.1 0-0.1 0-0.1 0-0.2 0z"/>
			<path id="Layer" class="s1" d="m16.4 10.8c-0.9 1.6-2.8 2.5-4.6 2.1-1.9-0.4-3.2-2-3.3-3.9-0.1-1.9 1.1-3.7 2.9-4.3 1.8-0.6 3.8 0.1 4.8 1.7q0 0 0 0l-0.1 0.1-1.2 0.7q-0.2-0.3-0.4-0.5-0.2-0.2-0.5-0.3-0.3-0.2-0.6-0.3-0.4-0.1-0.7 0c-1 0-1.9 0.5-2.3 1.3-0.5 0.9-0.5 1.9 0 2.8 0.5 0.8 1.4 1.3 2.4 1.3 1 0 1.8-0.6 2.3-1.5q0 0 0 0l1 0.6z"/>
			<path id="Layer" class="s2" d="m20.5 13.5l-1-1 3.6-3.7-3.6-3.7 1-1.1 4.8 4.8-4.8 4.7z"/>
			<path id="Layer" class="s3" d="m27.9 13.5l-4.8-4.7 4.8-4.8 1.1 1.1-3.7 3.7 3.7 3.7-1.1 1z"/>
			<path id="Layer" class="s2" d="m24 24.1l-4.8 4.8-4.7-4.8 1-1.1 3.7 3.7 3.7-3.7 1.1 1.1z"/>
			<path id="Layer" class="s0" d="m19.2 21.5q-1 0-2-0.2-1.1-0.1-2-0.4-1-0.3-2-0.8-0.9-0.4-1.7-1l0.8-1.3q1.5 1.1 3.3 1.6 1.8 0.5 3.6 0.5 1.9 0 3.6-0.5 1.8-0.5 3.3-1.6l0.9 1.3q-0.9 0.6-1.8 1-0.9 0.5-1.9 0.8-1 0.3-2 0.4-1 0.2-2.1 0.2z"/>
			<path id="Layer" class="s0" d="m43.3 12.6q0.2-0.4 0.4-0.6 0.3-0.3 0.5-0.6 0.3-0.2 0.6-0.4 0.2-0.3 0.6-0.4 0.6-0.4 1.4-0.6 0.8-0.2 1.5-0.2 0.8 0.1 1.6 0.3 0.7 0.2 1.4 0.6 0.3 0.2 0.6 0.5 0.3 0.2 0.6 0.6 0.2 0.3 0.4 0.6 0.2 0.4 0.4 0.7h-2.2q-0.1-0.2-0.2-0.3-0.1-0.2-0.3-0.4-0.1-0.2-0.3-0.3-0.2-0.1-0.4-0.3-0.2-0.1-0.4-0.1-0.2-0.1-0.4-0.2-0.2 0-0.5-0.1-0.2 0-0.4 0-0.3 0-0.5 0-0.3 0.1-0.5 0.1-0.3 0.1-0.5 0.2-0.2 0.1-0.5 0.2-0.2 0.1-0.4 0.3-0.2 0.1-0.3 0.3-0.2 0.2-0.3 0.4-0.2 0.2-0.3 0.4-0.1 0.3-0.2 0.5-0.1 0.3-0.2 0.6 0 0.2-0.1 0.5 0 0.3 0 0.5 0 0.3 0 0.6 0.1 0.3 0.1 0.5 0.1 0.3 0.2 0.6 0.1 0.2 0.2 0.5 0.1 0.2 0.3 0.4 0.1 0.2 0.3 0.4 0.1 0.2 0.3 0.3 0.2 0.2 0.4 0.3 0.3 0.1 0.5 0.2 0.2 0.1 0.5 0.2 0.2 0 0.5 0.1 0.2 0 0.5 0 0.2 0 0.4 0 0.3-0.1 0.5-0.1 0.2-0.1 0.4-0.2 0.2 0 0.4-0.1 0.2-0.2 0.4-0.3 0.2-0.1 0.3-0.3 0.2-0.2 0.3-0.3 0.1-0.2 0.2-0.4h2.2q-0.2 0.3-0.4 0.7-0.2 0.3-0.4 0.6-0.3 0.4-0.6 0.6-0.3 0.3-0.6 0.5-0.4 0.2-0.7 0.4-0.4 0.1-0.8 0.2-0.4 0.2-0.8 0.2-0.4 0.1-0.8 0-0.4 0.1-0.8 0-0.3 0-0.7-0.1-0.3-0.1-0.7-0.3-0.3-0.1-0.6-0.3-0.4-0.1-0.6-0.4-0.3-0.2-0.6-0.4-0.3-0.3-0.5-0.6-0.2-0.3-0.4-0.6-0.2-0.3-0.3-0.6-0.1-0.4-0.2-0.8-0.1-0.3-0.2-0.7 0-0.4 0-0.8 0-0.3 0-0.7 0.1-0.4 0.2-0.8 0.1-0.3 0.2-0.7 0.1-0.3 0.3-0.6z"/>
			<path id="Layer" fill-rule="evenodd" class="s0" d="m59.9 20.3q-0.3-0.1-0.6-0.3-0.3-0.3-0.5-0.5-0.3-0.3-0.5-0.6-0.2-0.2-0.4-0.6-0.2-0.3-0.4-0.6-0.1-0.4-0.2-0.8-0.1-0.3-0.1-0.7-0.1-0.4-0.1-0.8 0-0.3 0.1-0.7 0-0.4 0.1-0.8 0.1-0.3 0.2-0.7 0.2-0.3 0.4-0.6 0.2-0.4 0.4-0.6 0.2-0.3 0.5-0.6 0.2-0.2 0.5-0.4 0.3-0.3 0.6-0.4 0.7-0.4 1.4-0.6 0.7-0.2 1.4-0.2 0.8 0 1.5 0.2 0.7 0.2 1.3 0.6 0.4 0.1 0.7 0.4 0.2 0.2 0.5 0.4 0.3 0.3 0.5 0.6 0.2 0.2 0.4 0.6 0.2 0.3 0.3 0.6 0.1 0.4 0.2 0.8 0.1 0.3 0.2 0.7 0 0.4 0 0.7 0 0.4 0 0.8-0.1 0.4-0.2 0.7-0.1 0.4-0.2 0.8-0.1 0.3-0.3 0.6-0.2 0.4-0.4 0.6-0.2 0.3-0.5 0.6-0.3 0.2-0.5 0.5-0.3 0.2-0.7 0.3-0.6 0.4-1.3 0.6-0.7 0.2-1.5 0.2-0.7 0-1.4-0.2-0.7-0.2-1.4-0.6zm4.8-1.3q0.2-0.1 0.4-0.3 0.2-0.1 0.3-0.3 0.2-0.2 0.3-0.4 0.2-0.2 0.3-0.4 0.1-0.3 0.2-0.5 0.1-0.3 0.2-0.6 0-0.2 0-0.5 0.1-0.3 0.1-0.6 0-0.2-0.1-0.5 0-0.3 0-0.6-0.1-0.2-0.2-0.5-0.1-0.2-0.2-0.5-0.1-0.2-0.3-0.4-0.1-0.2-0.3-0.4-0.1-0.2-0.3-0.3-0.2-0.2-0.4-0.3-0.5-0.2-1-0.4-0.5-0.1-1-0.1-0.5 0-1 0.1-0.5 0.2-0.9 0.4-0.2 0.1-0.4 0.3-0.2 0.1-0.4 0.3-0.2 0.2-0.3 0.4-0.1 0.2-0.2 0.4-0.2 0.3-0.3 0.5-0.1 0.3-0.1 0.5-0.1 0.3-0.1 0.6 0 0.3 0 0.5 0 0.3 0 0.6 0 0.3 0.1 0.5 0 0.3 0.1 0.6 0.1 0.2 0.3 0.5 0.1 0.2 0.2 0.4 0.1 0.2 0.3 0.4 0.2 0.2 0.4 0.3 0.2 0.2 0.4 0.3 0.4 0.2 0.9 0.4 0.5 0.1 1 0.1 0.5 0 1-0.1 0.5-0.2 1-0.4z"/>
			<path id="Layer" fill-rule="evenodd" class="s0" d="m79.1 10.7q0.3 0.1 0.6 0.3 0.3 0.2 0.5 0.5 0.3 0.2 0.5 0.5 0.2 0.3 0.4 0.6 0.2 0.3 0.3 0.7 0.2 0.3 0.3 0.7 0.1 0.4 0.1 0.7 0 0.4 0 0.8 0 0.4 0 0.8 0 0.3-0.1 0.7-0.1 0.4-0.3 0.7-0.1 0.4-0.3 0.7-0.2 0.3-0.4 0.6-0.2 0.3-0.5 0.5-0.2 0.2-0.5 0.4-0.3 0.2-0.6 0.4-0.4 0.2-0.7 0.3-0.4 0.1-0.8 0.2-0.4 0.1-0.8 0.1-0.4 0.1-0.8 0.1h-3.6v-11h3.6q0.4 0 0.8 0 0.4 0.1 0.8 0.1 0.4 0.1 0.8 0.3 0.3 0.1 0.7 0.3zm-0.1 7.7q1-1 1-2.9 0-1.9-1-3-1.1-1-3-1h-1.8v8h1.8q1.9 0 3-1.1z"/>
			<path id="Layer" class="s0" d="m87.8 11.4v3.3h3.8v1.4h-3.8v3.4h4.2v1.5h-6v-11h6v1.4z"/>
			<path id="Layer" class="s0" d="m96.9 20.3h5.9v0.7h-6.8v-0.6l5.8-9.9h-5.6v-0.6h6.5v0.6z"/>
			<path id="Layer" class="s0" d="m107.8 10.5v4.6h4.4v0.6h-4.4v4.7h4.8v0.6h-5.6v-11.1h5.6v0.6z"/>
			<path id="Layer" fill-rule="evenodd" class="s0" d="m123.1 21l-2.8-4.8h-2.4v4.8h-0.7v-11.1h3q1.8 0 2.8 0.8 0.2 0.3 0.4 0.5 0.1 0.3 0.3 0.6 0.1 0.3 0.1 0.6 0.1 0.3 0.1 0.6 0 0.3 0 0.6-0.1 0.3-0.2 0.6-0.1 0.2-0.2 0.5-0.2 0.2-0.3 0.5-0.2 0.2-0.5 0.3-0.2 0.2-0.5 0.4-0.3 0.1-0.5 0.2-0.3 0-0.6 0.1l2.9 4.8zm-5.3-5.4h2.4q1.4 0 2.2-0.7 0.1-0.2 0.3-0.4 0.1-0.2 0.2-0.4 0.1-0.3 0.2-0.5 0-0.3 0-0.6 0-2.5-3-2.5h-2.3z"/>
			<path id="Layer" fill-rule="evenodd" class="s0" d="m130.5 20.4q-0.3-0.2-0.6-0.4-0.2-0.3-0.5-0.5-0.2-0.3-0.4-0.6-0.2-0.2-0.4-0.6-0.2-0.3-0.3-0.6-0.1-0.4-0.2-0.8-0.1-0.3-0.1-0.7-0.1-0.4-0.1-0.8 0-0.4 0-0.7 0.1-0.4 0.2-0.8 0.1-0.4 0.2-0.7 0.1-0.4 0.3-0.7 0.2-0.3 0.4-0.6 0.2-0.3 0.4-0.5 0.3-0.3 0.6-0.5 0.2-0.2 0.5-0.4 0.7-0.4 1.4-0.5 0.7-0.2 1.4-0.2 0.7 0 1.4 0.2 0.7 0.1 1.3 0.5 0.4 0.2 0.6 0.4 0.3 0.2 0.5 0.5 0.3 0.2 0.5 0.5 0.2 0.3 0.4 0.6 0.1 0.3 0.3 0.7 0.1 0.4 0.2 0.7 0.1 0.4 0.1 0.8 0.1 0.3 0.1 0.7 0 0.4-0.1 0.8 0 0.4-0.1 0.7-0.1 0.4-0.2 0.8-0.2 0.3-0.3 0.6-0.2 0.4-0.4 0.6-0.2 0.3-0.4 0.6-0.3 0.2-0.6 0.5-0.2 0.2-0.6 0.4-0.6 0.3-1.3 0.5-0.7 0.2-1.4 0.2-0.7 0-1.4-0.2-0.7-0.2-1.4-0.5zm5.2-0.6q0.2-0.1 0.5-0.3 0.2-0.2 0.4-0.4 0.2-0.2 0.4-0.5 0.2-0.2 0.3-0.5 0.2-0.3 0.3-0.6 0.1-0.4 0.2-0.7 0.1-0.3 0.1-0.7 0-0.3 0-0.7 0-0.3 0-0.7 0-0.3-0.1-0.6-0.1-0.4-0.2-0.7-0.1-0.3-0.3-0.6-0.1-0.3-0.3-0.6-0.2-0.2-0.4-0.4-0.2-0.3-0.4-0.4-0.3-0.2-0.5-0.4-0.6-0.3-1.2-0.4-0.6-0.2-1.2-0.2-0.6 0-1.2 0.2-0.6 0.1-1.2 0.4-0.2 0.2-0.5 0.4-0.2 0.1-0.4 0.4-0.2 0.2-0.4 0.4-0.2 0.3-0.3 0.6-0.2 0.3-0.3 0.6-0.1 0.3-0.2 0.7-0.1 0.3-0.1 0.6-0.1 0.4-0.1 0.7 0 0.4 0.1 0.7 0 0.4 0.1 0.7 0.1 0.3 0.2 0.7 0.1 0.3 0.3 0.6 0.1 0.3 0.3 0.5 0.2 0.3 0.4 0.5 0.2 0.2 0.4 0.4 0.3 0.2 0.5 0.3 0.6 0.3 1.2 0.5 0.6 0.1 1.2 0.1 0.6 0 1.2-0.1 0.6-0.2 1.2-0.5z"/>
			<path id="Layer" class="s0" d="m146.5 15.4l3.4 5.6h-0.8l-3-5-2.9 5h-0.8l3.3-5.6-3.3-5.5h0.8l3 4.9 2.9-4.9h0.8z"/>
		</g>
	</g>
</svg>